<svg xmlns="http://www.w3.org/2000/svg" height="512" viewBox="0 0 464 464" width="512" class=""><g><path d="m336 432h-304v-432h-32v456c0 4.417969 3.582031 8 8 8h456v-32zm0 0" fill="#898890" data-original="#898890" class="active-path" style="fill:#5C546A" data-old_color="##5C546"></path><path d="m160 280c0-4.417969-3.582031-8-8-8h-64c-4.417969 0-8 3.582031-8 8v152h80zm0 0" fill="#ffe477" data-original="#FFE477"></path><path d="m160 406v26h-80v-4.320312c27.222656-4.988282 53.984375-12.238282 80-21.679688zm0 0" fill="#ffe477" data-original="#FFE477"></path><path d="m288 200c0-4.417969-3.582031-8-8-8h-64c-4.417969 0-8 3.582031-8 8v232h80zm0 0" fill="#00ccb3" data-original="#00CCB3"></path><path d="m416 104c0-4.417969-3.582031-8-8-8h-64c-4.417969 0-8 3.582031-8 8v328h80zm0 0" fill="#ffc477" data-original="#FFC477"></path><path d="m208 112c0 35.347656-28.652344 64-64 64s-64-28.652344-64-64 28.652344-64 64-64 64 28.652344 64 64zm0 0" fill="#ffe477" data-original="#FFE477"></path><path d="m208 112c0 35.347656-28.652344 64-64 64-1.039062 0-2.078125 0-3.121094-.078125 42.394532-19.601563 62.121094-68.882813 44.960938-112.320313 14.109375 12.117188 22.207031 29.800782 22.160156 48.398438zm0 0" fill="#ffde55" data-original="#FFDE55"></path><path d="m304 112v-64h24l-48-48-48 48h24v64zm0 0" fill="#ff7956" data-original="#FF7956"></path><path d="m147.574219 104.839844c-6.773438-3.382813-11.574219-6.007813-11.574219-8.839844 0-4.417969 3.582031-8 8-8s8 3.582031 8 8h16c-.042969-10.132812-6.445312-19.148438-16-22.527344v-9.472656h-16v9.472656c-9.554688 3.378906-15.957031 12.394532-16 22.527344 0 12.945312 11.808594 18.847656 20.425781 23.160156 6.773438 3.382813 11.574219 6.007813 11.574219 8.839844 0 4.417969-3.582031 8-8 8s-8-3.582031-8-8h-16c.042969 10.132812 6.445312 19.148438 16 22.527344v9.472656h16v-9.472656c9.554688-3.378906 15.957031-12.394532 16-22.527344 0-12.945312-11.808594-18.847656-20.425781-23.160156zm0 0" fill="#ff7956" data-original="#FF7956"></path><path d="m336 296.632812v135.367188h80v-240.800781c-21.488281 38.789062-48.429688 74.296875-80 105.433593zm0 0" fill="#ffb655" data-original="#FFB655"></path><path d="m208 385.945312v46.054688h80v-94.222656c-25.054688 18.59375-51.84375 34.722656-80 48.167968zm0 0" fill="#0b7" data-original="#0B7"></path><path d="m80 427.679688v4.320312h80v-26c-26.015625 9.441406-52.777344 16.691406-80 21.679688zm0 0" fill="#ffd422" data-original="#FFD422" class="" style="fill:#FFD422"></path></g> </svg>